<?xml version="1.0" standalone="no"?>
<!DOCTYPE svg PUBLIC "-//W3C//DTD SVG 20010904//EN"
 "http://www.w3.org/TR/2001/REC-SVG-20010904/DTD/svg10.dtd">
<svg version="1.0" xmlns="http://www.w3.org/2000/svg"
 width="400.000000pt" height="400.000000pt" viewBox="0 0 400.000000 400.000000"
 preserveAspectRatio="xMidYMid meet">
<metadata>
Created by potrace 1.11, written by Peter Selinger 2001-2013
</metadata>
<g transform="translate(0.000000,400.000000) scale(0.100000,-0.100000)"
fill="#000000" stroke="none">
<path d="M1930 3834 c-95 -12 -240 -53 -265 -75 -5 -5 -16 -9 -25 -9 -19 0
-106 -43 -172 -85 -26 -16 -56 -46 -67 -66 -19 -33 -19 -37 -5 -43 13 -5 14
-9 4 -21 -16 -19 -25 -19 -46 3 -17 16 -17 16 -12 -5 3 -13 3 -23 -2 -23 -13
0 -30 26 -22 35 4 5 1 5 -6 1 -7 -4 -10 -16 -7 -26 4 -12 -4 -25 -24 -41 -16
-13 -28 -26 -25 -30 2 -4 -10 -18 -26 -31 -74 -56 -100 -81 -100 -96 0 -8 -2
-13 -5 -10 -9 9 -86 -74 -107 -116 -11 -23 -23 -43 -27 -46 -8 -7 -28 -50 -36
-78 -4 -12 -11 -19 -17 -16 -7 4 -8 2 -4 -4 4 -7 -2 -21 -12 -32 -11 -12 -22
-43 -26 -73 -4 -29 -10 -63 -13 -77 -8 -32 -7 -199 2 -415 4 -93 8 -189 8
-212 1 -23 8 -48 15 -54 6 -7 12 -17 12 -22 0 -5 9 -16 20 -25 14 -12 17 -25
13 -45 -5 -26 -6 -27 -22 -8 -24 27 -77 36 -97 16 -36 -35 7 -251 62 -311 8
-9 13 18 17 104 3 64 8 125 12 135 7 17 8 17 22 -3 8 -11 19 -18 24 -15 5 4 9
-1 9 -9 0 -9 5 -16 10 -16 6 0 10 -7 10 -15 0 -8 6 -15 14 -15 14 0 28 101 29
213 0 31 3 57 7 57 7 0 23 100 25 150 0 8 5 22 10 30 20 30 31 49 63 109 48
92 44 174 -14 251 -6 8 -14 28 -18 43 -5 21 -11 27 -22 23 -14 -5 -15 2 -9 56
4 35 11 70 16 80 9 17 -7 78 -21 78 -4 0 -3 17 2 39 6 25 18 42 34 50 13 6 24
15 24 21 0 13 -27 13 -35 0 -8 -13 -45 -13 -45 0 0 6 7 13 15 16 9 4 14 13 13
22 -2 8 4 17 12 19 12 4 12 3 2 -5 -11 -7 -8 -11 10 -15 12 -4 25 -2 26 3 2 6
8 10 13 10 4 0 6 -6 3 -14 -11 -29 32 -10 65 29 71 84 117 127 154 142 21 9
37 22 37 31 0 12 3 13 11 5 7 -7 7 -17 1 -29 -12 -24 -39 -92 -47 -120 -7 -28
24 -42 41 -20 6 9 25 16 42 16 17 0 34 5 37 10 12 19 34 10 37 -15 l3 -25 30
27 c16 16 45 33 64 40 29 10 40 9 65 -5 17 -9 34 -21 37 -25 3 -4 32 -4 65 1
32 6 111 11 174 11 63 1 119 6 125 10 5 5 46 15 90 21 44 7 85 16 90 20 6 4
22 10 37 14 15 3 33 12 40 19 38 37 248 77 248 47 0 -8 8 -10 21 -7 12 3 37
-3 58 -14 19 -10 41 -19 47 -19 6 0 18 -7 25 -16 7 -9 23 -20 36 -25 13 -5 35
-27 50 -49 16 -23 40 -56 56 -75 15 -18 27 -37 27 -43 0 -6 8 -17 18 -24 21
-16 42 -52 42 -73 0 -8 4 -23 9 -33 14 -28 31 -87 31 -108 0 -22 -36 -86 -56
-97 -8 -4 -14 -18 -14 -31 0 -15 -14 -35 -37 -55 -20 -17 -33 -34 -30 -37 3
-4 0 -18 -7 -33 -7 -14 -11 -44 -9 -67 4 -37 9 -44 47 -62 31 -16 48 -34 69
-75 15 -30 27 -59 27 -64 0 -6 6 -13 14 -16 15 -6 27 -39 46 -132 15 -71 49
-222 57 -248 3 -12 12 -17 26 -15 18 2 25 -6 41 -47 10 -27 21 -76 23 -107 5
-57 5 -58 40 -64 47 -9 59 8 69 94 8 80 -12 130 -58 139 -16 3 -31 9 -33 13
-10 16 8 40 29 40 12 0 27 5 34 12 8 8 18 9 35 1 31 -14 40 -75 32 -206 -3
-61 -2 -85 4 -72 5 11 10 14 10 7 1 -7 6 -10 11 -7 6 4 8 11 5 16 -4 5 1 9 10
9 9 0 13 5 10 10 -3 6 -2 10 4 10 6 0 17 14 26 30 19 37 30 110 17 110 -5 0
-7 17 -4 38 10 77 5 129 -14 155 -21 28 -68 41 -108 31 -21 -5 -26 -3 -26 14
0 23 48 74 63 65 6 -4 8 4 4 23 -17 79 -28 175 -37 334 -5 96 -17 202 -25 235
-9 33 -20 80 -25 104 -6 24 -14 49 -20 56 -5 6 -7 15 -4 18 4 4 0 17 -8 29 -8
13 -20 43 -27 68 -7 25 -17 59 -23 75 -27 88 -115 199 -209 263 -91 61 -136
92 -217 148 -103 73 -130 87 -236 126 -96 35 -215 64 -346 84 -112 16 -132 16
-270 -2z m-305 -174 c-3 -5 -16 -10 -28 -9 -21 0 -21 1 -2 9 28 12 37 12 30 0z
m-25 -96 c0 -7 -87 -94 -94 -94 -4 0 -18 -12 -31 -27 -23 -27 -24 -27 -22 -5
1 12 5 22 10 22 5 0 4 7 -3 15 -9 11 -7 19 10 37 36 40 130 77 130 52z m1392
-234 c52 -55 55 -61 37 -70 -16 -9 -21 -7 -29 14 -5 14 -15 24 -22 21 -14 -5
-58 57 -58 81 0 24 12 16 72 -46z m154 -205 c9 -14 13 -32 9 -42 -6 -16 -8
-16 -26 6 -20 25 -26 61 -9 61 5 0 17 -11 26 -25z m-118 -18 c4 -20 2 -20 -33
-7 -31 12 -26 27 7 25 13 -1 24 -9 26 -18z m162 9 c0 -3 -4 -8 -10 -11 -5 -3
-10 -1 -10 4 0 6 5 11 10 11 6 0 10 -2 10 -4z"/>
<path d="M2367 2443 c-4 -3 -57 -5 -119 -4 -137 1 -179 -5 -185 -30 -3 -10 -9
-17 -13 -14 -5 3 -11 1 -14 -4 -8 -12 -46 -3 -67 16 -9 7 -29 13 -45 12 -16
-1 -56 1 -89 4 -134 13 -309 10 -345 -6 -19 -9 -30 -17 -25 -17 13 -1 -66 -39
-81 -40 -6 0 -29 -8 -50 -17 -22 -9 -45 -18 -52 -19 -21 -4 -40 -35 -51 -84
-6 -25 -13 -55 -17 -67 -5 -17 1 -26 26 -41 22 -14 28 -22 19 -27 -9 -6 -7
-11 6 -21 15 -11 22 -10 45 6 33 23 110 38 110 21 0 -6 7 -11 17 -11 15 0 14
-2 -2 -20 -17 -19 -16 -19 32 -26 33 -4 50 -11 50 -20 0 -16 0 -16 -82 -16
-33 0 -67 -4 -75 -9 -9 -5 -10 -9 -3 -9 6 0 14 -9 18 -20 12 -38 131 -52 219
-26 26 8 78 33 116 55 38 23 75 41 82 41 21 0 74 52 83 80 4 14 15 39 25 56 9
16 20 46 24 65 4 19 22 52 41 74 34 39 35 39 35 14 0 -15 6 -32 14 -39 8 -6
12 -18 9 -26 -3 -8 1 -14 10 -14 8 0 17 -8 21 -17 3 -10 12 -35 18 -55 7 -21
33 -60 57 -88 35 -41 49 -50 76 -50 18 0 65 -18 111 -42 73 -38 85 -42 154
-41 75 0 161 19 216 48 16 8 37 15 47 15 21 0 22 16 1 24 -13 5 -14 9 -4 21 8
10 30 15 63 15 49 0 50 1 33 19 -17 19 -17 20 3 30 11 6 29 11 41 11 14 0 19
4 14 12 -5 7 -7 26 -5 43 3 41 -59 109 -109 120 -19 4 -50 13 -67 21 -18 7
-33 10 -33 6 0 -4 -17 -8 -39 -9 -32 -2 -40 2 -49 23 -7 14 -20 24 -32 24 -11
0 -23 6 -26 14 -8 22 -64 44 -110 44 -23 1 -44 -2 -47 -5z m363 -333 c12 -8 9
-10 -12 -10 -28 0 -38 -15 -15 -23 6 -2 -12 -7 -41 -12 -29 -4 -55 -5 -58 -3
-8 8 70 57 91 57 11 0 27 -4 35 -9z"/>
<path d="M1022 1942 c-1 -7 -18 -20 -37 -28 -31 -13 -35 -18 -35 -52 1 -63 17
-122 36 -137 30 -23 34 -18 27 31 -3 26 -1 60 6 82 7 20 11 55 8 77 -2 22 -4
34 -5 27z"/>
<path d="M2240 1821 c0 -5 5 -11 11 -13 15 -5 29 -87 19 -114 -8 -21 -13 -22
-98 -17 -67 4 -98 1 -123 -10 -53 -24 -260 -37 -283 -18 -6 5 -24 11 -41 13
-37 4 -44 35 -21 103 9 25 16 48 16 50 0 17 -37 -5 -115 -71 -49 -41 -109 -84
-132 -95 -24 -11 -43 -24 -43 -30 0 -6 -4 -8 -9 -4 -6 3 -13 0 -18 -8 -4 -7
-27 -21 -50 -31 -24 -10 -50 -29 -58 -42 -9 -13 -22 -24 -30 -24 -22 0 -38
-39 -41 -105 -2 -33 -7 -74 -12 -91 -6 -18 -6 -37 -1 -45 5 -8 9 -40 9 -72 0
-51 -3 -60 -20 -64 -26 -7 -20 -29 26 -100 19 -29 34 -57 34 -61 0 -5 9 -17
20 -27 11 -10 20 -23 20 -30 0 -11 10 -25 50 -72 6 -7 15 -24 20 -38 5 -14 14
-25 19 -25 5 0 13 -10 17 -22 3 -13 13 -30 20 -39 8 -9 36 -58 63 -110 66
-129 103 -182 185 -267 105 -107 193 -142 360 -142 194 0 317 49 471 190 55
49 105 100 111 112 7 13 33 40 57 60 51 42 97 102 127 165 12 24 43 78 70 122
67 109 145 273 166 351 9 36 22 72 29 80 23 30 36 78 33 126 l-3 49 -12 -39
c-13 -43 -88 -126 -113 -126 -29 1 -52 28 -55 67 -5 59 -50 182 -71 197 -10 7
-50 23 -87 36 -38 12 -71 28 -73 35 -8 20 -33 26 -54 13 -14 -9 -25 -9 -42 -1
-13 6 -43 19 -67 29 -24 10 -64 38 -89 61 -24 24 -47 43 -51 43 -4 0 -33 13
-66 30 -65 32 -75 35 -75 21z m-478 -301 c10 -19 18 -40 18 -47 0 -7 7 -10 16
-6 14 5 15 3 5 -15 -6 -12 -12 -37 -13 -56 -1 -28 -4 -33 -22 -29 -16 4 -17 2
-7 -5 8 -6 9 -12 3 -16 -6 -3 -13 2 -17 11 -3 10 -17 26 -31 37 -21 15 -28 16
-35 5 -11 -19 -23 -4 -14 18 15 33 17 48 17 83 -2 68 49 81 80 20z m552 -2 c9
-33 8 -38 -8 -38 -16 0 -31 34 -21 50 10 17 22 11 29 -12z m-961 -239 c7 0 3
-5 -8 -10 -15 -7 -8 -8 23 -4 43 5 82 -7 82 -26 0 -6 8 -29 19 -52 10 -23 22
-61 26 -84 6 -37 10 -43 31 -43 13 0 24 4 24 9 0 9 23 20 45 22 17 1 46 32 36
38 -5 3 -3 12 5 19 8 7 14 8 14 2 0 -5 6 -10 14 -10 7 0 27 -7 42 -15 16 -8
40 -15 54 -15 29 1 142 28 121 29 -8 1 -12 3 -9 6 7 7 68 -25 68 -36 0 -5 -15
-15 -34 -23 -34 -14 -35 -15 -30 -67 3 -30 9 -59 15 -65 5 -6 39 -12 76 -13
36 -1 69 -4 73 -6 4 -3 38 3 76 11 38 9 79 17 92 18 12 0 22 7 22 14 0 7 12
17 28 23 l27 11 -24 19 c-14 12 -39 19 -64 19 -40 0 -41 0 -19 16 29 20 28 50
0 58 -21 6 -22 7 -5 17 22 13 254 21 262 10 2 -5 28 -12 57 -15 49 -6 55 -10
76 -46 14 -24 30 -40 41 -40 25 0 31 -18 25 -80 -4 -56 -30 -108 -70 -139 -13
-10 -24 -26 -24 -35 0 -9 -5 -16 -10 -16 -23 0 -100 -43 -100 -56 0 -8 -9 -14
-20 -14 -12 0 -32 -7 -45 -16 -14 -9 -31 -14 -40 -11 -8 4 -17 2 -20 -3 -3 -5
-63 -8 -133 -7 -70 1 -133 -2 -139 -6 -7 -5 -18 -5 -23 -2 -6 4 -18 1 -27 -7
-18 -14 -230 -19 -281 -6 -16 5 -60 39 -97 77 -45 45 -82 73 -109 82 -43 15
-99 69 -130 128 -14 26 -20 59 -21 121 -4 179 -5 190 -17 188 -7 -2 -14 8 -16
21 -3 19 0 22 13 17 9 -3 22 -6 28 -7z m532 -45 c18 -19 4 -44 -25 -44 -26 0
-35 32 -14 47 22 16 19 16 39 -3z m760 -144 c4 -6 -6 -10 -22 -9 -25 0 -26 1
-8 9 11 5 21 9 22 9 1 1 5 -3 8 -9z"/>
<path d="M3285 1680 c-3 -5 1 -10 9 -10 8 0 18 5 21 10 3 6 -1 10 -9 10 -8 0
-18 -4 -21 -10z"/>
<path d="M3114 1521 c-15 -15 2 -28 42 -30 52 -2 80 5 87 22 3 9 -13 12 -60
12 -36 0 -67 -2 -69 -4z"/>
<path d="M1031 1461 c-20 -5 -22 -8 -9 -19 8 -6 30 -15 48 -19 29 -5 32 -4 27
11 -4 10 -7 22 -7 27 0 10 -23 10 -59 0z"/>
</g>
</svg>
